<svg width="20" height="20" viewBox="0 0 20 20" fill="none" xmlns="http://www.w3.org/2000/svg">
  <circle cx="1" cy="1" r="0.6" fill="white" fill-opacity="0.2"/>
  <circle cx="1" cy="5" r="0.6" fill="white" fill-opacity="0.2"/>
  <circle cx="1" cy="9" r="0.6" fill="white" fill-opacity="0.2"/>
  <circle cx="1" cy="13" r="0.6" fill="white" fill-opacity="0.2"/>
  <circle cx="1" cy="17" r="0.6" fill="white" fill-opacity="0.2"/>
  <circle cx="5" cy="1" r="0.6" fill="white" fill-opacity="0.2"/>
  <circle cx="5" cy="5" r="0.6" fill="white" fill-opacity="0.2"/>
  <circle cx="5" cy="9" r="0.6" fill="white" fill-opacity="0.2"/>
  <circle cx="5" cy="13" r="0.6" fill="white" fill-opacity="0.2"/>
  <circle cx="5" cy="17" r="0.6" fill="white" fill-opacity="0.2"/>
  <circle cx="9" cy="1" r="0.6" fill="white" fill-opacity="0.2"/>
  <circle cx="9" cy="5" r="0.6" fill="white" fill-opacity="0.2"/>
  <circle cx="9" cy="9" r="0.6" fill="white" fill-opacity="0.2"/>
  <circle cx="9" cy="13" r="0.6" fill="white" fill-opacity="0.2"/>
  <circle cx="9" cy="17" r="0.6" fill="white" fill-opacity="0.2"/>
  <circle cx="13" cy="1" r="0.6" fill="white" fill-opacity="0.2"/>
  <circle cx="13" cy="5" r="0.6" fill="white" fill-opacity="0.2"/>
  <circle cx="13" cy="9" r="0.6" fill="white" fill-opacity="0.2"/>
  <circle cx="13" cy="13" r="0.6" fill="white" fill-opacity="0.2"/>
  <circle cx="13" cy="17" r="0.6" fill="white" fill-opacity="0.2"/>
  <circle cx="17" cy="1" r="0.6" fill="white" fill-opacity="0.2"/>
  <circle cx="17" cy="5" r="0.6" fill="white" fill-opacity="0.2"/>
  <circle cx="17" cy="9" r="0.6" fill="white" fill-opacity="0.2"/>
  <circle cx="17" cy="13" r="0.6" fill="white" fill-opacity="0.2"/>
  <circle cx="17" cy="17" r="0.6" fill="white" fill-opacity="0.2"/>
</svg> 